<svg version="1.1" xmlns="http://www.w3.org/2000/svg" viewBox="0 0 1864.56640625 739.25" width="1864.56640625" height="739.25" filter="invert(93%) hue-rotate(180deg)">
  <!-- svg-source:excalidraw -->
  
  <defs>
    <style class="style-fonts">
      @font-face {
        font-family: "Virgil";
        src: url("https://excalidraw.com/Virgil.woff2");
      }
      @font-face {
        font-family: "Cascadia";
        src: url("https://excalidraw.com/Cascadia.woff2");
      }
    </style>
    
  </defs>
  <rect x="0" y="0" width="1864.56640625" height="739.25" fill="#ffffff"></rect><g stroke-linecap="round" transform="translate(1426 228.25) rotate(0 163 141.5)"><path d="M32 0 M32 0 C88.89 -2.84, 147.68 -2.29, 294 0 M32 0 C85.54 -2.3, 140.3 -1.89, 294 0 M294 0 C314.85 1.13, 324.55 10.46, 326 32 M294 0 C314.37 0.03, 325.8 10.6, 326 32 M326 32 C327.48 82.57, 325.85 129.72, 326 251 M326 32 C324.82 102.31, 325.19 171.51, 326 251 M326 251 C325.73 272.84, 316.25 283.2, 294 283 M326 251 C324.2 274.08, 316.1 283.4, 294 283 M294 283 C233.71 283.14, 174.21 285.48, 32 283 M294 283 C198.68 281.46, 103.83 281.07, 32 283 M32 283 C11.34 281.65, 0.79 274.06, 0 251 M32 283 C8.63 284.73, 0.35 271.82, 0 251 M0 251 C3.02 205.61, 0.37 157.99, 0 32 M0 251 C-0.34 183.14, 0.57 114.5, 0 32 M0 32 C0.23 11.01, 11.56 0.76, 32 0 M0 32 C-0.29 12.11, 8.54 -1.11, 32 0" stroke="#1e1e1e" stroke-width="1" fill="none"></path></g><g transform="translate(1539.9794921875 353.65) rotate(0 49.0205078125 16.10000000000001)"><text x="49.0205078125" y="0" font-family="Helvetica, Segoe UI Emoji" font-size="28px" fill="#1e1e1e" text-anchor="middle" style="white-space: pre;" direction="ltr" dominant-baseline="text-before-edge">gokrazy</text></g><g stroke-linecap="round" transform="translate(1437.25 414.25) rotate(0 71.5 42.5)"><path d="M21.25 0 M21.25 0 C42.41 -0.97, 63.41 0.93, 121.75 0 M21.25 0 C52.12 0.63, 81.99 0.9, 121.75 0 M121.75 0 C137.2 0.23, 143.61 8.47, 143 21.25 M121.75 0 C136.16 -0.97, 143.56 7.38, 143 21.25 M143 21.25 C144.24 30.5, 141.78 40.81, 143 63.75 M143 21.25 C142.71 38.06, 143.35 53.08, 143 63.75 M143 63.75 C144.73 77.21, 135.92 84.28, 121.75 85 M143 63.75 C143.38 75.94, 135.04 84.58, 121.75 85 M121.75 85 C83.14 82.71, 46.88 82.96, 21.25 85 M121.75 85 C88.39 85.39, 54.84 84.54, 21.25 85 M21.25 85 C6.26 85.84, 1.21 76.54, 0 63.75 M21.25 85 C7.48 82.82, -0.45 80.15, 0 63.75 M0 63.75 C1.69 52.65, 1.89 41.95, 0 21.25 M0 63.75 C0.5 48.76, 0.31 31.47, 0 21.25 M0 21.25 C-0.37 7.98, 8.81 0.45, 21.25 0 M0 21.25 C0.85 7.37, 5.33 -1.22, 21.25 0" stroke="#1e1e1e" stroke-width="1" fill="none"></path></g><g transform="translate(1455.9619140625 433.75) rotate(0 52.7880859375 23)"><text x="52.7880859375" y="0" font-family="Helvetica, Segoe UI Emoji" font-size="20px" fill="#1e1e1e" text-anchor="middle" style="white-space: pre;" direction="ltr" dominant-baseline="text-before-edge">waiw</text><text x="52.7880859375" y="23" font-family="Helvetica, Segoe UI Emoji" font-size="20px" fill="#1e1e1e" text-anchor="middle" style="white-space: pre;" direction="ltr" dominant-baseline="text-before-edge">(webserver)</text></g><g stroke-linecap="round" transform="translate(10 10) rotate(0 354 287.5)"><path d="M32 0 M32 0 C275.04 -0.17, 517.26 0.12, 676 0 M32 0 C274.81 0.94, 517.15 0.48, 676 0 M676 0 C695.91 0.37, 709.97 10.91, 708 32 M676 0 C698.3 -1.78, 708.91 11.66, 708 32 M708 32 C707.58 192.35, 708.02 353.17, 708 543 M708 32 C708.52 154.19, 707.91 277.22, 708 543 M708 543 C708.87 565.08, 697.23 573.21, 676 575 M708 543 C706.57 564.74, 698.39 573.7, 676 575 M676 575 C521.47 574.58, 366.7 575.22, 32 575 M676 575 C520.77 572.26, 365.83 572.71, 32 575 M32 575 C11.19 576.1, 0.46 562.4, 0 543 M32 575 C9.09 574.9, -1.07 564.9, 0 543 M0 543 C-0.25 368.17, 0.42 194.2, 0 32 M0 543 C-0.65 383.02, -0.56 222.88, 0 32 M0 32 C-0.65 11.22, 12.41 -1.36, 32 0 M0 32 C-1.86 11.93, 8.98 -1.99, 32 0" stroke="#1e1e1e" stroke-width="1" fill="none"></path></g><g transform="translate(308.765625 281.4) rotate(0 55.234375 16.099999999999994)"><text x="55.234375" y="0" font-family="Helvetica, Segoe UI Emoji" font-size="28px" fill="#1e1e1e" text-anchor="middle" style="white-space: pre;" direction="ltr" dominant-baseline="text-before-edge">Proxmox</text></g><g stroke-linecap="round" transform="translate(249 430.375) rotate(0 79 68.5)"><path d="M32 0 M32 0 C68.17 0.14, 105.71 -0.44, 126 0 M32 0 C67.81 -0.84, 102.32 -0.03, 126 0 M126 0 C146.37 -1.79, 156.7 10.38, 158 32 M126 0 C148.46 -0.75, 156 10.58, 158 32 M158 32 C156 55.69, 157.64 84.38, 158 105 M158 32 C157.8 54.53, 157.45 78.61, 158 105 M158 105 C158.73 125.09, 147.42 135.38, 126 137 M158 105 C157.61 127.94, 149.18 136.56, 126 137 M126 137 C91.26 139.13, 60.58 138.98, 32 137 M126 137 C91.69 136.83, 57.26 137.14, 32 137 M32 137 C8.77 138.36, 1.41 124.52, 0 105 M32 137 C12.6 137.11, 1.37 124.68, 0 105 M0 105 C0.68 80.6, 0.43 60.71, 0 32 M0 105 C-1.03 86.9, -0.39 70.73, 0 32 M0 32 C-1.85 8.93, 12.44 1.78, 32 0 M0 32 C2.02 10.69, 11.54 0.99, 32 0" stroke="#1e1e1e" stroke-width="1" fill="none"></path></g><g transform="translate(281.3056640625 464.375) rotate(0 46.6943359375 34.5)"><text x="46.6943359375" y="0" font-family="Helvetica, Segoe UI Emoji" font-size="20px" fill="#1e1e1e" text-anchor="middle" style="white-space: pre;" direction="ltr" dominant-baseline="text-before-edge">LXC with </text><text x="46.6943359375" y="23" font-family="Helvetica, Segoe UI Emoji" font-size="20px" fill="#1e1e1e" text-anchor="middle" style="white-space: pre;" direction="ltr" dominant-baseline="text-before-edge">Syncthing </text><text x="46.6943359375" y="46" font-family="Helvetica, Segoe UI Emoji" font-size="20px" fill="#1e1e1e" text-anchor="middle" style="white-space: pre;" direction="ltr" dominant-baseline="text-before-edge">service</text></g><g stroke-linecap="round" transform="translate(449 431.875) rotate(0 76.5 69)"><path d="M32 0 M32 0 C60.86 0.45, 87.49 -0.76, 121 0 M32 0 C51.16 0.56, 69.42 -0.26, 121 0 M121 0 C140.39 -0.71, 154.23 9.41, 153 32 M121 0 C143.99 1.65, 153.04 9.15, 153 32 M153 32 C152.76 54.41, 154.27 74.04, 153 106 M153 32 C152.3 57.9, 153.11 82.11, 153 106 M153 106 C154.7 126.05, 144.33 138.68, 121 138 M153 106 C151.97 127.18, 141.3 138.64, 121 138 M121 138 C86.53 136.85, 51.63 137.15, 32 138 M121 138 C92.87 137.5, 65.15 137.57, 32 138 M32 138 C11.74 138.64, -0.58 126.4, 0 106 M32 138 C10.67 139.08, 0.4 127.14, 0 106 M0 106 C-0.82 78.43, -1.97 48.07, 0 32 M0 106 C1.19 90.6, -0.43 76.56, 0 32 M0 32 C1.38 10.02, 9.49 -1.98, 32 0 M0 32 C1.36 10.73, 8.46 -1.6, 32 0" stroke="#1e1e1e" stroke-width="1" fill="none"></path></g><g transform="translate(476.583984375 466.375) rotate(0 48.916015625 34.5)"><text x="48.916015625" y="0" font-family="Helvetica, Segoe UI Emoji" font-size="20px" fill="#1e1e1e" text-anchor="middle" style="white-space: pre;" direction="ltr" dominant-baseline="text-before-edge">LXC with </text><text x="48.916015625" y="23" font-family="Helvetica, Segoe UI Emoji" font-size="20px" fill="#1e1e1e" text-anchor="middle" style="white-space: pre;" direction="ltr" dominant-baseline="text-before-edge">postgresql </text><text x="48.916015625" y="46" font-family="Helvetica, Segoe UI Emoji" font-size="20px" fill="#1e1e1e" text-anchor="middle" style="white-space: pre;" direction="ltr" dominant-baseline="text-before-edge">service</text></g><g stroke-linecap="round" transform="translate(452.75 26.75) rotate(0 80.625 28.75)"><path d="M14.38 0 M14.38 0 C55.9 -0.31, 101.01 -1.28, 146.88 0 M14.38 0 C54.42 0.87, 93.45 1.3, 146.88 0 M146.88 0 C155.28 1.07, 161.89 4.21, 161.25 14.38 M146.88 0 C155.38 0, 162.33 5.2, 161.25 14.38 M161.25 14.38 C162.16 22.26, 162.01 29.5, 161.25 43.13 M161.25 14.38 C161.9 21.5, 160.42 26.03, 161.25 43.13 M161.25 43.13 C161.79 54.09, 155.81 56.32, 146.88 57.5 M161.25 43.13 C158.98 54.06, 156.52 55.29, 146.88 57.5 M146.88 57.5 C115.02 58.24, 84.61 56.2, 14.38 57.5 M146.88 57.5 C101.66 56.59, 57.83 57.34, 14.38 57.5 M14.38 57.5 C6.71 56.77, -1.64 50.91, 0 43.13 M14.38 57.5 C5.6 56.93, -0.65 52.26, 0 43.13 M0 43.13 C-1.12 35.6, -1.49 28.73, 0 14.38 M0 43.13 C0.11 34.22, -0.13 24.61, 0 14.38 M0 14.38 C1.57 6.73, 5.08 1.25, 14.38 0 M0 14.38 C1.38 3.35, 2.57 -1.88, 14.38 0" stroke="#1e1e1e" stroke-width="1" fill="none"></path></g><g transform="translate(481.1142578125 32.5) rotate(0 52.2607421875 23)"><text x="52.2607421875" y="0" font-family="Helvetica, Segoe UI Emoji" font-size="20px" fill="#1e1e1e" text-anchor="middle" style="white-space: pre;" direction="ltr" dominant-baseline="text-before-edge">storagepool</text><text x="52.2607421875" y="23" font-family="Helvetica, Segoe UI Emoji" font-size="20px" fill="#1e1e1e" text-anchor="middle" style="white-space: pre;" direction="ltr" dominant-baseline="text-before-edge">(HDD)</text></g><g stroke-linecap="round" transform="translate(717.125 131.75) rotate(0 80.625 28.75)"><path d="M14.38 0 M14.38 0 C44.83 0.37, 74.67 1.35, 146.88 0 M14.38 0 C64.31 0.22, 114.21 1.41, 146.88 0 M146.88 0 C157.08 1.55, 161.9 5.15, 161.25 14.38 M146.88 0 C154.6 -0.8, 162.07 2.59, 161.25 14.38 M161.25 14.38 C161.5 25.08, 162.54 33.49, 161.25 43.13 M161.25 14.38 C161.16 22.54, 160.91 31.27, 161.25 43.13 M161.25 43.13 C160.13 52.23, 155.44 55.82, 146.88 57.5 M161.25 43.13 C159.87 53.36, 158.25 59.1, 146.88 57.5 M146.88 57.5 C100.75 56.46, 51.54 57.9, 14.38 57.5 M146.88 57.5 C93.1 56.3, 40.7 55.55, 14.38 57.5 M14.38 57.5 C3.63 56.42, -1.19 52.09, 0 43.13 M14.38 57.5 C6.95 57.3, -0.1 52.16, 0 43.13 M0 43.13 C-1.89 35.19, 0.89 28.95, 0 14.38 M0 43.13 C-0.18 33.36, 0.58 22.84, 0 14.38 M0 14.38 C0.92 4.04, 3.56 0.39, 14.38 0 M0 14.38 C2.16 5.77, 6.07 -1.5, 14.38 0" stroke="#1e1e1e" stroke-width="1" fill="none"></path></g><g transform="translate(731.0703125 137.5) rotate(0 66.6796875 23)"><text x="66.6796875" y="0" font-family="Helvetica, Segoe UI Emoji" font-size="20px" fill="#1e1e1e" text-anchor="middle" style="white-space: pre;" direction="ltr" dominant-baseline="text-before-edge">external</text><text x="66.6796875" y="23" font-family="Helvetica, Segoe UI Emoji" font-size="20px" fill="#1e1e1e" text-anchor="middle" style="white-space: pre;" direction="ltr" dominant-baseline="text-before-edge">(external HDD)</text></g><g stroke-linecap="round" transform="translate(20.25 406.125) rotate(0 102.5 83)"><path d="M32 0 M32 0 C78.3 0.82, 125.89 0.68, 173 0 M32 0 C72.03 0.38, 110.18 2.16, 173 0 M173 0 C194.07 0.74, 203.7 11.56, 205 32 M173 0 C194.82 2.04, 203.84 11.59, 205 32 M205 32 C205.09 71.28, 205.55 112.94, 205 134 M205 32 C205.59 59, 205.77 85.49, 205 134 M205 134 C203.6 154.07, 194.6 166.68, 173 166 M205 134 C205.54 154.9, 196.61 167.16, 173 166 M173 166 C136.81 166.48, 105.3 167.16, 32 166 M173 166 C121.78 167.55, 69.07 167.21, 32 166 M32 166 C11.07 164.03, 0.28 154.55, 0 134 M32 166 C12.32 167.85, 0.03 156.47, 0 134 M0 134 C-2.67 105.75, -0.31 76.27, 0 32 M0 134 C1.79 100.64, 0.09 67.22, 0 32 M0 32 C0.94 10.99, 9.77 -1.37, 32 0 M0 32 C2.12 12.62, 12.24 -0.03, 32 0" stroke="#1e1e1e" stroke-width="1" fill="none"></path></g><g transform="translate(30.4892578125 420.125) rotate(0 92.2607421875 69)"><text x="92.2607421875" y="0" font-family="Helvetica, Segoe UI Emoji" font-size="20px" fill="#1e1e1e" text-anchor="middle" style="white-space: pre;" direction="ltr" dominant-baseline="text-before-edge">LXC with monitoring </text><text x="92.2607421875" y="23" font-family="Helvetica, Segoe UI Emoji" font-size="20px" fill="#1e1e1e" text-anchor="middle" style="white-space: pre;" direction="ltr" dominant-baseline="text-before-edge">services</text><text x="92.2607421875" y="46" font-family="Helvetica, Segoe UI Emoji" font-size="20px" fill="#1e1e1e" text-anchor="middle" style="white-space: pre;" direction="ltr" dominant-baseline="text-before-edge">(grafana, </text><text x="92.2607421875" y="69" font-family="Helvetica, Segoe UI Emoji" font-size="20px" fill="#1e1e1e" text-anchor="middle" style="white-space: pre;" direction="ltr" dominant-baseline="text-before-edge">alertmanager, </text><text x="92.2607421875" y="92" font-family="Helvetica, Segoe UI Emoji" font-size="20px" fill="#1e1e1e" text-anchor="middle" style="white-space: pre;" direction="ltr" dominant-baseline="text-before-edge">prometheus, </text><text x="92.2607421875" y="115" font-family="Helvetica, Segoe UI Emoji" font-size="20px" fill="#1e1e1e" text-anchor="middle" style="white-space: pre;" direction="ltr" dominant-baseline="text-before-edge">pushgateway)</text></g><g stroke-linecap="round"><g transform="translate(1510.25 25.5) rotate(0 134.84097341170536 -0.837598801543372)"><path d="M1.07 -0.04 C45.85 -0.02, 224.96 0.28, 269.51 0.2 M0.17 -1.11 C44.79 -1.48, 224.42 -2.09, 268.96 -1.82" stroke="#2f9e44" stroke-width="1" fill="none"></path></g></g><mask></mask><g transform="translate(1799 12.599999999999994) rotate(0 27.783203125 11.5)"><text x="0" y="0" font-family="Helvetica, Segoe UI Emoji" font-size="20px" fill="#2f9e44" text-anchor="start" style="white-space: pre;" direction="ltr" dominant-baseline="text-before-edge">Rsync</text></g><g stroke-linecap="round"><g transform="translate(1514.2545373555088 56.900000000000006) rotate(0 134.55142794048413 0.00031298063290563505)"><path d="M1.12 1.07 C45.87 1.32, 224.27 0.88, 268.86 0.64 M0.25 0.58 C44.81 0.56, 223.37 -1.17, 267.96 -1.14" stroke="#1971c2" stroke-width="1" fill="none"></path></g></g><mask></mask><g transform="translate(1800.5045373555088 44) rotate(0 21.11328125 11.5)"><text x="0" y="0" font-family="Helvetica, Segoe UI Emoji" font-size="20px" fill="#1971c2" text-anchor="start" style="white-space: pre;" direction="ltr" dominant-baseline="text-before-edge">Cmd</text></g><g stroke-linecap="round"><g transform="translate(1429 451.75) rotate(0 -270 -136.875)"><path d="M0 0 C-90 -45.63, -450 -228.13, -540 -273.75" stroke="#2f9e44" stroke-width="2.5" fill="none" stroke-dasharray="8 10"></path></g><g transform="translate(1429 451.75) rotate(0 -270 -136.875)"><path d="M-510.22 -270.16 C-519.76 -271.31, -529.31 -272.46, -540 -273.75" stroke="#2f9e44" stroke-width="2.5" fill="none"></path></g><g transform="translate(1429 451.75) rotate(0 -270 -136.875)"><path d="M-519.5 -251.85 C-526.07 -258.87, -532.64 -265.89, -540 -273.75" stroke="#2f9e44" stroke-width="2.5" fill="none"></path></g></g><mask></mask><g stroke-linecap="round"><g transform="translate(896.5 125.5) rotate(0 0 0)"><path d="M0 0 C0 0, 0 0, 0 0" stroke="#2f9e44" stroke-width="2.5" fill="none" stroke-dasharray="8 10"></path></g><g transform="translate(896.5 125.5) rotate(0 0 0)"><path d="MNaN NaN CNaN NaN, NaN NaN, NaN NaN" stroke="#2f9e44" stroke-width="2.5" fill="none"></path></g><g transform="translate(896.5 125.5) rotate(0 0 0)"><path d="MNaN NaN CNaN NaN, NaN NaN, NaN NaN" stroke="#2f9e44" stroke-width="2.5" fill="none"></path></g></g><mask></mask><g stroke-linecap="round"><g transform="translate(609 506.75) rotate(0 120.47167721373495 -156.25)"><path d="M0 0 C36.88 -11.04, 182.71 -14.17, 221.25 -66.25 C259.79 -118.33, 229.58 -271.46, 231.25 -312.5" stroke="#2f9e44" stroke-width="2.5" fill="none" stroke-dasharray="8 10"></path></g><g transform="translate(609 506.75) rotate(0 120.47167721373495 -156.25)"><path d="M243.49 -285.11 C240.57 -291.66, 237.64 -298.21, 231.25 -312.5" stroke="#2f9e44" stroke-width="2.5" fill="none"></path></g><g transform="translate(609 506.75) rotate(0 120.47167721373495 -156.25)"><path d="M223.02 -283.65 C224.99 -290.55, 226.96 -297.45, 231.25 -312.5" stroke="#2f9e44" stroke-width="2.5" fill="none"></path></g></g><mask></mask><g stroke-linecap="round"><g transform="translate(805.25 128) rotate(0 -94.375 -26.875)"><path d="M0 0 C-5.83 -4.38, -3.54 -17.29, -35 -26.25 C-66.46 -35.21, -163.13 -49.17, -188.75 -53.75" stroke="#1971c2" stroke-width="2.5" fill="none" stroke-dasharray="8 10"></path></g><g transform="translate(805.25 128) rotate(0 -94.375 -26.875)"><path d="M-159.28 -59.36 C-169.04 -57.5, -178.8 -55.64, -188.75 -53.75" stroke="#1971c2" stroke-width="2.5" fill="none"></path></g><g transform="translate(805.25 128) rotate(0 -94.375 -26.875)"><path d="M-162.57 -39.1 C-171.24 -43.95, -179.91 -48.8, -188.75 -53.75" stroke="#1971c2" stroke-width="2.5" fill="none"></path></g></g><mask></mask><g stroke-linecap="round"><g transform="translate(396.5 418) rotate(0 207.5 -113.75)"><path d="M0 0 C56.25 -7.29, 268.33 -5.83, 337.5 -43.75 C406.67 -81.67, 402.08 -196.88, 415 -227.5" stroke="#2f9e44" stroke-width="2.5" fill="none" stroke-dasharray="8 10"></path></g><g transform="translate(396.5 418) rotate(0 207.5 -113.75)"><path d="M419.43 -197.83 C418.54 -203.83, 417.64 -209.84, 415 -227.5" stroke="#2f9e44" stroke-width="2.5" fill="none"></path></g><g transform="translate(396.5 418) rotate(0 207.5 -113.75)"><path d="M399.33 -201.92 C402.5 -207.1, 405.67 -212.27, 415 -227.5" stroke="#2f9e44" stroke-width="2.5" fill="none"></path></g></g><mask></mask><g stroke-linecap="round"><g transform="translate(109 396.75) rotate(0 329.375 -101.25)"><path d="M0 0 C59.79 -8.33, 248.96 -16.25, 358.75 -50 C468.54 -83.75, 608.75 -177.08, 658.75 -202.5" stroke="#2f9e44" stroke-width="2.5" fill="none" stroke-dasharray="8 10"></path></g><g transform="translate(109 396.75) rotate(0 329.375 -101.25)"><path d="M639.36 -179.6 C647.01 -188.64, 654.66 -197.67, 658.75 -202.5" stroke="#2f9e44" stroke-width="2.5" fill="none"></path></g><g transform="translate(109 396.75) rotate(0 329.375 -101.25)"><path d="M629.18 -197.42 C640.85 -199.43, 652.51 -201.43, 658.75 -202.5" stroke="#2f9e44" stroke-width="2.5" fill="none"></path></g></g><mask></mask><g stroke-linecap="round" transform="translate(1467.75 559.25) rotate(0 115.625 85)"><path d="M32 0 M32 0 C78.8 0, 125.61 0, 199.25 0 M32 0 C97.81 0, 163.61 0, 199.25 0 M199.25 0 C220.58 0, 231.25 10.67, 231.25 32 M199.25 0 C220.58 0, 231.25 10.67, 231.25 32 M231.25 32 C231.25 63, 231.25 93.99, 231.25 138 M231.25 32 C231.25 58.11, 231.25 84.21, 231.25 138 M231.25 138 C231.25 159.33, 220.58 170, 199.25 170 M231.25 138 C231.25 159.33, 220.58 170, 199.25 170 M199.25 170 C148.21 170, 97.16 170, 32 170 M199.25 170 C160.26 170, 121.28 170, 32 170 M32 170 C10.67 170, 0 159.33, 0 138 M32 170 C10.67 170, 0 159.33, 0 138 M0 138 C0 104.52, 0 71.03, 0 32 M0 138 C0 115.85, 0 93.69, 0 32 M0 32 C0 10.67, 10.67 0, 32 0 M0 32 C0 10.67, 10.67 0, 32 0" stroke="#1e1e1e" stroke-width="1" fill="none"></path></g><g transform="translate(1483.7822265625 612.05) rotate(0 99.5927734375 32.19999999999999)"><text x="99.5927734375" y="0" font-family="Helvetica, Segoe UI Emoji" font-size="28px" fill="#1e1e1e" text-anchor="middle" style="white-space: pre;" direction="ltr" dominant-baseline="text-before-edge">Personal pc</text><text x="99.5927734375" y="32.199999999999996" font-family="Helvetica, Segoe UI Emoji" font-size="28px" fill="#1e1e1e" text-anchor="middle" style="white-space: pre;" direction="ltr" dominant-baseline="text-before-edge">(gokrazy config)</text></g><g stroke-linecap="round"><g transform="translate(1446.5 638.89032111386) rotate(0 -288.30064021915064 -220.44516055692998)"><path d="M0 0 C-96.1 -73.48, -480.5 -367.41, -576.6 -440.89" stroke="#2f9e44" stroke-width="2.5" fill="none" stroke-dasharray="8 10"></path></g><g transform="translate(1446.5 638.89032111386) rotate(0 -288.30064021915064 -220.44516055692998)"><path d="M-547.97 -431.92 C-557.58 -434.93, -567.18 -437.94, -576.6 -440.89" stroke="#2f9e44" stroke-width="2.5" fill="none"></path></g><g transform="translate(1446.5 638.89032111386) rotate(0 -288.30064021915064 -220.44516055692998)"><path d="M-560.44 -415.62 C-565.86 -424.09, -571.28 -432.57, -576.6 -440.89" stroke="#2f9e44" stroke-width="2.5" fill="none"></path></g></g><mask></mask><g transform="translate(871.4072265625 29.69999999999999) rotate(0 270.0927734375 23)"><text x="270.0927734375" y="0" font-family="Helvetica, Segoe UI Emoji" font-size="20px" fill="#1e1e1e" text-anchor="middle" style="white-space: pre;" direction="ltr" dominant-baseline="text-before-edge">From each rsync command to external, a cmd command (cp)</text><text x="270.0927734375" y="23" font-family="Helvetica, Segoe UI Emoji" font-size="20px" fill="#1e1e1e" text-anchor="middle" style="white-space: pre;" direction="ltr" dominant-baseline="text-before-edge"> is executed to storage pool</text></g></svg>